<svg width="64" height="65" viewBox="0 0 64 65" fill="none" xmlns="http://www.w3.org/2000/svg">
<g clip-path="url(#clip0_52_160)">
<g clip-path="url(#clip1_52_160)">
<g clip-path="url(#clip2_52_160)">
<path d="M63.75 32.4838C63.75 14.9487 49.535 0.733765 32 0.733765C14.465 0.733765 0.25 14.9487 0.25 32.4838C0.25 50.0188 14.465 64.2338 32 64.2338C49.535 64.2338 63.75 50.0188 63.75 32.4838Z" stroke="#268334" stroke-opacity="0.2" stroke-width="0.5"/>
<path d="M31.6277 56.064C44.7227 56.064 55.3383 45.4484 55.3383 32.3534C55.3383 19.2584 44.7227 8.64282 31.6277 8.64282C18.5327 8.64282 7.91711 19.2584 7.91711 32.3534C7.91711 45.4484 18.5327 56.064 31.6277 56.064Z" stroke="#321C61" stroke-width="1.43377"/>
<path d="M39.5002 28.2252H29.0002V25.9752C29.0002 25.1795 29.3163 24.4165 29.8789 23.8539C30.4415 23.2913 31.2046 22.9752 32.0002 22.9752C33.4412 22.9752 34.7377 24.0064 35.0152 25.3743C35.0564 25.5675 35.1723 25.7367 35.3375 25.8451C35.5028 25.9535 35.7042 25.9922 35.8978 25.9529C36.0915 25.9137 36.2619 25.7995 36.3719 25.6353C36.4819 25.4712 36.5226 25.2702 36.4852 25.0761C36.0615 22.9893 34.1752 21.4752 32.0002 21.4752C30.8072 21.4764 29.6633 21.9509 28.8196 22.7946C27.976 23.6382 27.5015 24.7821 27.5002 25.9752V28.2252H24.5002C24.1024 28.2252 23.7209 28.3832 23.4396 28.6645C23.1583 28.9458 23.0002 29.3274 23.0002 29.7252V40.2252C23.0002 40.623 23.1583 41.0045 23.4396 41.2859C23.7209 41.5672 24.1024 41.7252 24.5002 41.7252H39.5002C39.8981 41.7252 40.2796 41.5672 40.5609 41.2859C40.8422 41.0045 41.0002 40.623 41.0002 40.2252V29.7252C41.0002 29.3274 40.8422 28.9458 40.5609 28.6645C40.2796 28.3832 39.8981 28.2252 39.5002 28.2252ZM39.5002 40.2252H24.5002V29.7252H39.5002V40.2252Z" fill="#321C61"/>
</g>
</g>
</g>
<defs>
<clipPath id="clip0_52_160">
<rect width="64" height="65" fill="white"/>
</clipPath>
<clipPath id="clip1_52_160">
<rect width="64" height="65" fill="white"/>
</clipPath>
<clipPath id="clip2_52_160">
<rect width="64" height="65" fill="white"/>
</clipPath>
</defs>
</svg>
