<svg width="32" height="32" viewBox="0 0 32 32" fill="none" xmlns="http://www.w3.org/2000/svg">
<g clip-path="url(#clip0_52_567)">
<g clip-path="url(#clip1_52_567)">
<g clip-path="url(#clip2_52_567)">
<path d="M15.7298 0.26709H15.7297C7.04243 0.26709 0 7.30952 0 15.9968V15.9969C0 24.6842 7.04243 31.7266 15.7297 31.7266H15.7298C24.4171 31.7266 31.4595 24.6842 31.4595 15.9969V15.9968C31.4595 7.30952 24.4171 0.26709 15.7298 0.26709Z" fill="#321C61"/>
<path d="M23.0348 7H7.79094L3 15.55L15.4564 26L28 15.7227L23.0348 7Z" fill="white"/>
<g clip-path="url(#clip3_52_567)">
<path d="M12.8967 14.849C12.8967 14.7478 12.9774 14.6657 13.0768 14.6657C13.1763 14.6657 13.257 14.7478 13.257 14.849V14.9927L13.3939 14.8972C13.476 14.8404 13.5877 14.8619 13.6435 14.9454C13.6993 15.0289 13.6782 15.1426 13.5961 15.1994L13.4132 15.3273L13.5848 15.428C13.6707 15.4786 13.6998 15.5903 13.65 15.6776C13.6003 15.765 13.4906 15.7946 13.4047 15.744L13.2565 15.6571V15.8313C13.2565 15.9325 13.1758 16.0146 13.0764 16.0146C12.9769 16.0146 12.8962 15.9325 12.8962 15.8313V15.6877L12.7593 15.7831C12.6772 15.8399 12.5656 15.8185 12.5097 15.7349C12.4539 15.6514 12.475 15.5378 12.5571 15.481L12.7401 15.3531L12.5684 15.2523C12.4825 15.2017 12.4534 15.0901 12.5032 15.0027C12.5529 14.9153 12.6626 14.8858 12.7485 14.9363L12.8967 15.0232V14.849ZM17.7426 14.849C17.7426 14.7478 17.8233 14.6657 17.9227 14.6657C18.0222 14.6657 18.1028 14.7478 18.1028 14.849V14.9927L18.2398 14.8972C18.3219 14.8404 18.4335 14.8619 18.4893 14.9454C18.5452 15.0289 18.524 15.1426 18.442 15.1994L18.259 15.3273L18.4307 15.428C18.5165 15.4786 18.5456 15.5903 18.4959 15.6776C18.4462 15.765 18.3364 15.7946 18.2506 15.744L18.1024 15.6571V15.8313C18.1024 15.9325 18.0217 16.0146 17.9222 16.0146C17.8228 16.0146 17.7421 15.9325 17.7421 15.8313V15.6877L17.6051 15.7831C17.5231 15.8399 17.4114 15.8185 17.3556 15.7349C17.2998 15.6514 17.3209 15.5378 17.403 15.481L17.5859 15.3531L17.4142 15.2523C17.3284 15.2017 17.2993 15.0901 17.349 15.0027C17.3988 14.9153 17.5085 14.8858 17.5944 14.9363L17.7426 15.0232V14.849ZM15.3194 14.849C15.3194 14.7478 15.4 14.6657 15.4995 14.6657C15.5989 14.6657 15.6796 14.7478 15.6796 14.849V14.9927L15.8166 14.8972C15.8986 14.8404 16.0103 14.8619 16.0661 14.9454C16.1219 15.0289 16.1008 15.1426 16.0187 15.1994L15.8358 15.3273L16.0075 15.428C16.0933 15.4786 16.1224 15.5903 16.0727 15.6776C16.023 15.765 15.9132 15.7946 15.8274 15.744L15.6791 15.6571V15.8313C15.6791 15.9325 15.5984 16.0146 15.499 16.0146C15.3996 16.0146 15.3189 15.9325 15.3189 15.8313V15.6877L15.1819 15.7831C15.0998 15.8399 14.9882 15.8185 14.9324 15.7349C14.8766 15.6514 14.8977 15.5378 14.9798 15.481L15.1627 15.3531L14.991 15.2523C14.9052 15.2017 14.8761 15.0901 14.9258 15.0027C14.9755 14.9153 15.0853 14.8858 15.1711 14.9363L15.3194 15.0232V14.849ZM11.7737 16.9812V19.513C11.7737 19.7884 11.8844 20.039 12.0622 20.2199C12.24 20.4008 12.4862 20.5135 12.7569 20.5135H18.2422C18.5128 20.5135 18.7591 20.4008 18.9369 20.2199C19.1147 20.039 19.2253 19.7884 19.2253 19.513V16.9812H11.7737ZM12.4253 13.6996H13.3667V12.1554C13.3667 11.5588 13.6073 11.016 13.9934 10.6227C14.3799 10.2294 14.9137 9.985 15.4995 9.985C16.0854 9.985 16.6192 10.2299 17.0057 10.6232C17.3922 11.0165 17.6328 11.5597 17.6328 12.1559V13.7001H18.5743V12.1559C18.5743 11.2991 18.2323 10.5205 17.676 9.95013C17.1145 9.37925 16.3457 9.02698 15.5 9.02698C14.6538 9.02698 13.885 9.37877 13.3282 9.94488C12.771 10.5119 12.4253 11.2943 12.4253 12.1559L12.4253 13.6996ZM19.5312 14.0662H11.4683C11.3694 14.0662 11.2793 14.1077 11.2141 14.1741C11.1489 14.2404 11.1081 14.3326 11.1081 14.4328V16.2472C11.1081 16.3445 11.1456 16.4333 11.2103 16.5021C11.2798 16.5727 11.3698 16.6137 11.4688 16.6137H19.5316C19.6306 16.6137 19.7207 16.5722 19.7859 16.5059C19.8515 16.44 19.8919 16.3483 19.8919 16.2472V14.4328C19.8919 14.3321 19.8511 14.2404 19.7859 14.1741C19.7207 14.1077 19.6297 14.0662 19.5312 14.0662Z" fill="#321C61"/>
</g>
</g>
</g>
</g>
<defs>
<clipPath id="clip0_52_567">
<rect width="32" height="32" fill="white"/>
</clipPath>
<clipPath id="clip1_52_567">
<rect width="32" height="32" fill="white"/>
</clipPath>
<clipPath id="clip2_52_567">
<rect width="32" height="32" fill="white"/>
</clipPath>
<clipPath id="clip3_52_567">
<rect width="10.8108" height="13.5135" fill="white" transform="translate(9.08105 7.67566)"/>
</clipPath>
</defs>
</svg>
