<svg width="32" height="32" viewBox="0 0 32 32" fill="none" xmlns="http://www.w3.org/2000/svg">
<g clip-path="url(#clip0_52_573)">
<g clip-path="url(#clip1_52_573)">
<g clip-path="url(#clip2_52_573)">
<mask id="mask0_52_573" style="mask-type:luminance" maskUnits="userSpaceOnUse" x="0" y="0" width="32" height="32">
<path d="M15.9866 0.26709H15.9865C7.29926 0.26709 0.256836 7.30952 0.256836 15.9968V15.9969C0.256836 24.6842 7.29926 31.7266 15.9865 31.7266H15.9866C24.6739 31.7266 31.7163 24.6842 31.7163 15.9969V15.9968C31.7163 7.30952 24.6739 0.26709 15.9866 0.26709Z" fill="white"/>
</mask>
<g mask="url(#mask0_52_573)">
<path d="M15.9866 0.26709H15.9865C7.29926 0.26709 0.256836 7.30952 0.256836 15.9968V15.9969C0.256836 24.6842 7.29926 31.7266 15.9865 31.7266H15.9866C24.6739 31.7266 31.7163 24.6842 31.7163 15.9969V15.9968C31.7163 7.30952 24.6739 0.26709 15.9866 0.26709Z" fill="#1877F2"/>
<path d="M22.1095 20.5438L22.8069 15.9969H18.4443V13.0476C18.4443 11.8034 19.0526 10.5898 21.0066 10.5898H22.9912V6.71884C22.9912 6.71884 21.1909 6.41162 19.4704 6.41162C15.876 6.41162 13.5288 8.58982 13.5288 12.5315V15.9969H9.53491V20.5438H13.5288V31.5362C14.3306 31.6621 15.1509 31.7267 15.9866 31.7267C16.8222 31.7267 17.6425 31.6621 18.4443 31.5362V20.5438H22.1095Z" fill="white"/>
</g>
</g>
</g>
</g>
<defs>
<clipPath id="clip0_52_573">
<rect width="32" height="32" fill="white"/>
</clipPath>
<clipPath id="clip1_52_573">
<rect width="32" height="32" fill="white"/>
</clipPath>
<clipPath id="clip2_52_573">
<rect width="32" height="32" fill="white"/>
</clipPath>
</defs>
</svg>
