<svg width="32" height="32" viewBox="0 0 32 32" fill="none" xmlns="http://www.w3.org/2000/svg">
<g clip-path="url(#clip0_52_583)">
<g clip-path="url(#clip1_52_583)">
<g clip-path="url(#clip2_52_583)">
<path d="M16.2432 0.26709H16.2431C7.55585 0.26709 0.513428 7.30952 0.513428 15.9968V15.9969C0.513428 24.6842 7.55585 31.7266 16.2431 31.7266H16.2432C24.9305 31.7266 31.9729 24.6842 31.9729 15.9969V15.9968C31.9729 7.30952 24.9305 0.26709 16.2432 0.26709Z" fill="#1D9BF0"/>
<path d="M13.3645 24.2944C20.3407 24.2944 24.1551 18.5137 24.1551 13.5038C24.1551 13.3386 24.1551 13.1734 24.1472 13.0161C24.8865 12.4813 25.5315 11.8128 26.0427 11.0499C25.3663 11.3488 24.6349 11.5533 23.8641 11.6477C24.6506 11.1758 25.2483 10.4365 25.5315 9.54773C24.8 9.9803 23.99 10.2949 23.1248 10.4679C22.4327 9.72862 21.4496 9.27246 20.3564 9.27246C18.2643 9.27246 16.5655 10.9713 16.5655 13.0633C16.5655 13.3622 16.597 13.6532 16.6678 13.9285C13.514 13.7712 10.7219 12.2611 8.85009 9.96457C8.52763 10.523 8.33887 11.1758 8.33887 11.8679C8.33887 13.1813 9.00739 14.3453 10.0298 15.0217C9.40849 15.0059 8.82649 14.8329 8.31528 14.5498C8.31528 14.5655 8.31528 14.5812 8.31528 14.597C8.31528 16.4374 9.62084 17.9631 11.359 18.3171C11.0444 18.4036 10.7062 18.4508 10.3601 18.4508C10.1163 18.4508 9.88038 18.4272 9.64443 18.38C10.1242 19.89 11.5241 20.9832 13.1836 21.0147C11.8859 22.0293 10.25 22.6349 8.47257 22.6349C8.16584 22.6349 7.86698 22.6191 7.56812 22.5798C9.2276 23.6652 11.2253 24.2944 13.3645 24.2944Z" fill="white"/>
</g>
</g>
</g>
<defs>
<clipPath id="clip0_52_583">
<rect width="32" height="32" fill="white"/>
</clipPath>
<clipPath id="clip1_52_583">
<rect width="32" height="32" fill="white"/>
</clipPath>
<clipPath id="clip2_52_583">
<rect width="32" height="32" fill="white"/>
</clipPath>
</defs>
</svg>
