<svg width="32" height="32" viewBox="0 0 32 32" fill="none" xmlns="http://www.w3.org/2000/svg">
<g clip-path="url(#clip0_52_589)">
<g clip-path="url(#clip1_52_589)">
<g clip-path="url(#clip2_52_589)">
<path d="M16.0001 0.258911H16C7.57874 0.258911 0.751984 7.08566 0.751984 15.5069V15.507C0.751984 23.9282 7.57874 30.755 16 30.755H16.0001C24.4213 30.755 31.248 23.9282 31.248 15.507V15.5069C31.248 7.08566 24.4213 0.258911 16.0001 0.258911Z" fill="#0A66C2"/>
<path d="M23.1483 7.12024H8.85175C8.52336 7.12024 8.20843 7.25069 7.97624 7.48289C7.74404 7.7151 7.61359 8.03003 7.61359 8.3584V22.6549C7.61359 22.9833 7.74404 23.2982 7.97624 23.5304C8.20843 23.7626 8.52336 23.893 8.85175 23.893H23.1483C23.4766 23.893 23.7916 23.7626 24.0237 23.5304C24.256 23.2982 24.3864 22.9833 24.3864 22.6549V8.3584C24.3864 8.03003 24.256 7.7151 24.0237 7.48289C23.7916 7.25069 23.4766 7.12024 23.1483 7.12024ZM12.6128 21.4086H10.0911V13.3984H12.6128V21.4086ZM11.3502 12.2884C11.0641 12.2867 10.785 12.2004 10.548 12.0403C10.3109 11.8802 10.1266 11.6535 10.0183 11.3887C9.91001 11.1239 9.88257 10.833 9.93948 10.5527C9.99628 10.2723 10.135 10.0152 10.3379 9.81354C10.5408 9.6119 10.7989 9.47491 11.0796 9.41984C11.3603 9.36476 11.651 9.39407 11.9151 9.50407C12.1791 9.61406 12.4047 9.79978 12.5633 10.0379C12.7219 10.2759 12.8064 10.5557 12.8062 10.8418C12.8088 11.0332 12.773 11.2233 12.7006 11.4007C12.6283 11.578 12.521 11.739 12.3851 11.8739C12.2493 12.009 12.0876 12.1152 11.9098 12.1865C11.732 12.2576 11.5417 12.2923 11.3502 12.2884ZM21.9078 21.4156H19.3872V17.0395C19.3872 15.7489 18.8385 15.3506 18.1304 15.3506C17.3826 15.3506 16.6488 15.9143 16.6488 17.0721V21.4156H14.127V13.4042H16.5521V14.5142H16.5847C16.8281 14.0216 17.6808 13.1794 18.9818 13.1794C20.3889 13.1794 21.9089 14.0145 21.9089 16.4606L21.9078 21.4156Z" fill="white"/>
</g>
</g>
</g>
<defs>
<clipPath id="clip0_52_589">
<rect width="32" height="31.02" fill="white"/>
</clipPath>
<clipPath id="clip1_52_589">
<rect width="32" height="31.02" fill="white"/>
</clipPath>
<clipPath id="clip2_52_589">
<rect width="31.9894" height="31.02" fill="white" transform="translate(0.00531006)"/>
</clipPath>
</defs>
</svg>
