<svg width="32" height="32" viewBox="0 0 32 32" fill="none" xmlns="http://www.w3.org/2000/svg">
<g clip-path="url(#clip0_52_595)">
<g clip-path="url(#clip1_52_595)">
<g clip-path="url(#clip2_52_595)">
<path d="M15.7569 0.26709H15.7568C7.06953 0.26709 0.0270996 7.30952 0.0270996 15.9968V15.9969C0.0270996 24.6842 7.06953 31.7266 15.7568 31.7266H15.7569C24.4442 31.7266 31.4866 24.6842 31.4866 15.9969V15.9968C31.4866 7.30952 24.4442 0.26709 15.7569 0.26709Z" fill="url(#paint0_radial_52_595)"/>
<path d="M15.7569 0.26709H15.7568C7.06953 0.26709 0.0270996 7.30952 0.0270996 15.9968V15.9969C0.0270996 24.6842 7.06953 31.7266 15.7568 31.7266H15.7569C24.4442 31.7266 31.4866 24.6842 31.4866 15.9969V15.9968C31.4866 7.30952 24.4442 0.26709 15.7569 0.26709Z" fill="url(#paint1_radial_52_595)"/>
<path d="M16.0009 6.00977C13.2851 6.00977 12.9442 6.02164 11.8776 6.07018C10.813 6.11894 10.0863 6.28749 9.45045 6.53479C8.79274 6.79021 8.23481 7.13189 7.67898 7.68796C7.12272 8.24381 6.78105 8.80175 6.5248 9.45928C6.27688 10.0953 6.10813 10.8223 6.06021 11.8865C6.0125 12.9532 6 13.2942 6 16.0102C6 18.7261 6.01208 19.0659 6.06042 20.1326C6.10938 21.1973 6.27792 21.924 6.52501 22.5598C6.78063 23.2176 7.1223 23.7755 7.67835 24.3313C8.23398 24.8876 8.7919 25.2301 9.4492 25.4856C10.0855 25.7329 10.8123 25.9014 11.8767 25.9502C12.9434 25.9987 13.284 26.0106 15.9997 26.0106C18.7158 26.0106 19.0556 25.9987 20.1222 25.9502C21.1868 25.9014 21.9143 25.7329 22.5506 25.4856C23.2081 25.2301 23.7652 24.8876 24.3208 24.3313C24.8771 23.7755 25.2187 23.2176 25.475 22.56C25.7208 21.924 25.8896 21.1971 25.9396 20.1328C25.9875 19.0661 26 18.7261 26 16.0102C26 13.2942 25.9875 12.9534 25.9396 11.8867C25.8896 10.822 25.7208 10.0953 25.475 9.45949C25.2187 8.80175 24.8771 8.24381 24.3208 7.68796C23.7646 7.13169 23.2083 6.79001 22.55 6.53479C21.9125 6.28749 21.1854 6.11894 20.1208 6.07018C19.0541 6.02164 18.7145 6.00977 15.9978 6.00977H16.0009ZM15.1038 7.81192C15.3701 7.81151 15.6672 7.81192 16.0009 7.81192C18.671 7.81192 18.9874 7.82151 20.0418 7.86942C21.0168 7.91401 21.546 8.07693 21.8985 8.21381C22.3652 8.39507 22.6979 8.61175 23.0477 8.96176C23.3977 9.31177 23.6143 9.64512 23.796 10.1118C23.9329 10.4639 24.096 10.9931 24.1404 11.9681C24.1883 13.0223 24.1987 13.339 24.1987 16.0079C24.1987 18.6767 24.1883 18.9934 24.1404 20.0476C24.0958 21.0227 23.9329 21.5519 23.796 21.904C23.6148 22.3706 23.3977 22.7029 23.0477 23.0528C22.6977 23.4028 22.3654 23.6194 21.8985 23.8007C21.5464 23.9382 21.0168 24.1007 20.0418 24.1453C18.9876 24.1932 18.671 24.2036 16.0009 24.2036C13.3307 24.2036 13.0142 24.1932 11.9601 24.1453C10.9851 24.1003 10.4559 23.9374 10.1032 23.8005C9.6365 23.6192 9.30316 23.4026 8.95316 23.0525C8.60315 22.7025 8.38648 22.37 8.20481 21.9031C8.06794 21.551 7.90481 21.0218 7.86044 20.0468C7.81252 18.9926 7.80294 18.6759 7.80294 16.0054C7.80294 13.3349 7.81252 13.0198 7.86044 11.9656C7.90502 10.9906 8.06794 10.4614 8.20481 10.1089C8.38607 9.64221 8.60315 9.30886 8.95316 8.95884C9.30316 8.60883 9.6365 8.39215 10.1032 8.21048C10.4557 8.07297 10.9851 7.91047 11.9601 7.86567C12.8826 7.82401 13.2401 7.81151 15.1038 7.80942V7.81192ZM21.3389 9.47241C20.6764 9.47241 20.1389 10.0093 20.1389 10.672C20.1389 11.3346 20.6764 11.8721 21.3389 11.8721C22.0014 11.8721 22.5389 11.3346 22.5389 10.672C22.5389 10.0095 22.0014 9.47241 21.3389 9.47241ZM16.0009 10.8745C13.1649 10.8745 10.8655 13.174 10.8655 16.0102C10.8655 18.8463 13.1649 21.1448 16.0009 21.1448C18.837 21.1448 21.1356 18.8463 21.1356 16.0102C21.1356 13.174 18.837 10.8745 16.0009 10.8745ZM16.0009 12.6767C17.8418 12.6767 19.3343 14.1691 19.3343 16.0102C19.3343 17.8511 17.8418 19.3436 16.0009 19.3436C14.1599 19.3436 12.6676 17.8511 12.6676 16.0102C12.6676 14.1691 14.1599 12.6767 16.0009 12.6767Z" fill="white"/>
</g>
</g>
</g>
<defs>
<radialGradient id="paint0_radial_52_595" cx="0" cy="0" r="1" gradientUnits="userSpaceOnUse" gradientTransform="translate(8.38356 34.1496) rotate(-90) scale(31.1786 28.9986)">
<stop stop-color="#FFDD55"/>
<stop offset="0.1" stop-color="#FFDD55"/>
<stop offset="0.5" stop-color="#FF543E"/>
<stop offset="1" stop-color="#C837AB"/>
</radialGradient>
<radialGradient id="paint1_radial_52_595" cx="0" cy="0" r="1" gradientUnits="userSpaceOnUse" gradientTransform="translate(-5.24253 2.53338) rotate(78.6806) scale(13.937 57.4488)">
<stop stop-color="#3771C8"/>
<stop offset="0.128" stop-color="#3771C8"/>
<stop offset="1" stop-color="#6600FF" stop-opacity="0"/>
</radialGradient>
<clipPath id="clip0_52_595">
<rect width="32" height="32" fill="white"/>
</clipPath>
<clipPath id="clip1_52_595">
<rect width="32" height="32" fill="white"/>
</clipPath>
<clipPath id="clip2_52_595">
<rect width="32" height="32" fill="white"/>
</clipPath>
</defs>
</svg>
