<svg width="32" height="32" viewBox="0 0 32 32" fill="none" xmlns="http://www.w3.org/2000/svg">
<g clip-path="url(#clip0_52_602)">
<g clip-path="url(#clip1_52_602)">
<g clip-path="url(#clip2_52_602)">
<path d="M16.0135 0.26709H16.0134C7.32612 0.26709 0.283691 7.30952 0.283691 15.9968V15.9969C0.283691 24.6842 7.32612 31.7266 16.0134 31.7266H16.0135C24.7008 31.7266 31.7432 24.6842 31.7432 15.9969V15.9968C31.7432 7.30952 24.7008 0.26709 16.0135 0.26709Z" fill="#FF0000"/>
<path fill-rule="evenodd" clip-rule="evenodd" d="M23.7061 9.53682C24.5483 9.76357 25.2123 10.4276 25.4391 11.2698C25.8602 12.8084 25.844 16.0153 25.844 16.0153C25.844 16.0153 25.844 19.2059 25.4391 20.7445C25.2123 21.5867 24.5483 22.2508 23.7061 22.4775C22.1674 22.8824 16.0129 22.8824 16.0129 22.8824C16.0129 22.8824 9.8746 22.8824 8.31977 22.4613C7.47757 22.2346 6.81353 21.5705 6.58679 20.7283C6.18188 19.2059 6.18188 15.9991 6.18188 15.9991C6.18188 15.9991 6.18188 12.8084 6.58679 11.2698C6.81353 10.4276 7.49377 9.74737 8.31977 9.52063C9.8584 9.11572 16.0129 9.11572 16.0129 9.11572C16.0129 9.11572 22.1674 9.11572 23.7061 9.53682ZM19.1712 15.8866L14.0532 18.8343V12.9389L19.1712 15.8866Z" fill="white"/>
</g>
</g>
</g>
<defs>
<clipPath id="clip0_52_602">
<rect width="32" height="32" fill="white"/>
</clipPath>
<clipPath id="clip1_52_602">
<rect width="32" height="32" fill="white"/>
</clipPath>
<clipPath id="clip2_52_602">
<rect width="32" height="32" fill="white"/>
</clipPath>
</defs>
</svg>
