<svg width="66" height="65" viewBox="0 0 66 65" fill="none" xmlns="http://www.w3.org/2000/svg">
<g clip-path="url(#clip0_52_168)">
<g clip-path="url(#clip1_52_168)">
<g clip-path="url(#clip2_52_168)">
<path d="M65.0765 32.4838C65.0765 14.9487 50.8615 0.733765 33.3265 0.733765C15.7915 0.733765 1.57651 14.9487 1.57651 32.4838C1.57651 50.0188 15.7915 64.2338 33.3265 64.2338C50.8615 64.2338 65.0765 50.0188 65.0765 32.4838Z" stroke="#268334" stroke-opacity="0.2" stroke-width="0.5"/>
<path d="M32.9542 56.064C46.0492 56.064 56.6648 45.4484 56.6648 32.3534C56.6648 19.2584 46.0492 8.64282 32.9542 8.64282C19.8592 8.64282 9.24361 19.2584 9.24361 32.3534C9.24361 45.4484 19.8592 56.064 32.9542 56.064Z" stroke="#321C61" stroke-width="1.43377"/>
<path d="M39.7126 31.9997C42.0236 28.755 43.202 25.4016 41.5632 23.7628C39.9245 22.1241 36.5711 23.3025 33.3264 25.6135C30.0817 23.3025 26.7282 22.1241 25.0895 23.7628C23.4507 25.4016 24.6292 28.755 26.9401 31.9997C24.6292 35.2444 23.4507 38.5978 25.0895 40.2366C25.6173 40.7644 26.3223 40.9997 27.1436 40.9997C28.8761 40.9997 31.1261 39.9525 33.3311 38.386C35.5267 39.9525 37.7767 40.9997 39.5139 40.9997C40.3351 40.9997 41.0411 40.7635 41.5679 40.2366C43.202 38.5978 42.0236 35.2444 39.7126 31.9997ZM40.5029 24.8232C41.2192 25.5394 40.7354 27.8607 38.7667 30.7557C38.1438 29.9846 37.4807 29.2471 36.7801 28.546C36.079 27.8463 35.3414 27.1841 34.5704 26.5622C37.4654 24.5935 39.7867 24.106 40.5029 24.8232ZM37.8536 31.9997C37.1902 32.8389 36.4777 33.6381 35.7198 34.3932C34.9648 35.151 34.1656 35.8635 33.3264 36.5269C32.4871 35.8635 31.6879 35.151 30.9329 34.3932C30.1751 33.6381 29.4626 32.8389 28.7992 31.9997C30.1302 30.3225 31.6491 28.8035 33.3264 27.4725C34.1656 28.1359 34.9648 28.8484 35.7198 29.6063C36.4777 30.3613 37.1902 31.1605 37.8536 31.9997ZM26.1498 24.8232C26.3561 24.616 26.6964 24.5091 27.1454 24.5091C28.2536 24.5091 30.0226 25.156 32.0814 26.5622C31.3112 27.1846 30.5739 27.8468 29.8726 28.546C29.173 29.2471 28.5108 29.9847 27.8889 30.7557C25.9201 27.8607 25.4336 25.5394 26.1498 24.8232ZM26.1498 39.1763C25.4336 38.46 25.9201 36.1388 27.8889 33.2438C28.5117 34.0148 29.1748 34.7524 29.8754 35.4535C30.5761 36.1526 31.3127 36.8147 32.0823 37.4372C29.1873 39.406 26.8661 39.8935 26.1498 39.1763ZM40.5029 39.1763C39.7867 39.8935 37.4654 39.4088 34.5704 37.44C35.341 36.8167 36.0786 36.1536 36.7801 35.4535C37.4798 34.7523 38.1419 34.0147 38.7639 33.2438C40.7326 36.1388 41.2192 38.46 40.5029 39.1763ZM34.4514 31.9997C34.4514 32.2222 34.3854 32.4397 34.2618 32.6247C34.1382 32.8097 33.9625 32.9539 33.7569 33.0391C33.5513 33.1242 33.3251 33.1465 33.1069 33.1031C32.8887 33.0597 32.6882 32.9525 32.5309 32.7952C32.3735 32.6379 32.2664 32.4374 32.223 32.2192C32.1796 32.001 32.2019 31.7748 32.287 31.5692C32.3721 31.3636 32.5163 31.1879 32.7013 31.0643C32.8864 30.9407 33.1039 30.8747 33.3264 30.8747C33.6247 30.8747 33.9109 30.9932 34.1219 31.2042C34.3328 31.4152 34.4514 31.7013 34.4514 31.9997Z" fill="#321C61"/>
</g>
</g>
</g>
<defs>
<clipPath id="clip0_52_168">
<rect width="65" height="65" fill="white" transform="translate(0.660004 0.00012207)"/>
</clipPath>
<clipPath id="clip1_52_168">
<rect width="65" height="65" fill="white" transform="translate(0.660004 0.00012207)"/>
</clipPath>
<clipPath id="clip2_52_168">
<rect width="65" height="65" fill="white" transform="translate(0.660004 0.00012207)"/>
</clipPath>
</defs>
</svg>
