<svg width="66" height="65" viewBox="0 0 66 65" fill="none" xmlns="http://www.w3.org/2000/svg">
<g clip-path="url(#clip0_52_176)">
<g clip-path="url(#clip1_52_176)">
<g clip-path="url(#clip2_52_176)">
<path d="M64.4133 32.4838C64.4133 14.9487 50.1983 0.733765 32.6633 0.733765C15.1282 0.733765 0.913269 14.9487 0.913269 32.4838C0.913269 50.0188 15.1282 64.2338 32.6633 64.2338C50.1983 64.2338 64.4133 50.0188 64.4133 32.4838Z" stroke="#268334" stroke-opacity="0.2" stroke-width="0.5"/>
<path d="M32.2902 56.064C45.3852 56.064 56.0008 45.4484 56.0008 32.3534C56.0008 19.2584 45.3852 8.64282 32.2902 8.64282C19.1952 8.64282 8.57962 19.2584 8.57962 32.3534C8.57962 45.4484 19.1952 56.064 32.2902 56.064Z" stroke="#321C61" stroke-width="1.43377"/>
<path d="M41.6626 26.7499H40.1626V25.9999C40.1626 25.4031 39.9256 24.8308 39.5036 24.4089C39.0817 23.9869 38.5094 23.7499 37.9126 23.7499H24.4126C23.8159 23.7499 23.2436 23.9869 22.8217 24.4089C22.3997 24.8308 22.1626 25.4031 22.1626 25.9999V34.9999C22.1626 35.5966 22.3997 36.1689 22.8217 36.5908C23.2436 37.0128 23.8159 37.2499 24.4126 37.2499H34.9126V37.9999C34.9126 38.5966 35.1497 39.1689 35.5717 39.5908C35.9936 40.0128 36.5659 40.2499 37.1626 40.2499H41.6626C42.2594 40.2499 42.8317 40.0128 43.2536 39.5908C43.6756 39.1689 43.9126 38.5966 43.9126 37.9999V28.9999C43.9126 28.4031 43.6756 27.8308 43.2536 27.4089C42.8317 26.9869 42.2594 26.7499 41.6626 26.7499ZM24.4126 35.7499C24.2137 35.7499 24.023 35.6708 23.8823 35.5302C23.7417 35.3895 23.6626 35.1988 23.6626 34.9999V25.9999C23.6626 25.8009 23.7417 25.6102 23.8823 25.4695C24.023 25.3289 24.2137 25.2499 24.4126 25.2499H37.9126C38.1116 25.2499 38.3023 25.3289 38.443 25.4695C38.5836 25.6102 38.6626 25.8009 38.6626 25.9999V26.7499H37.1626C36.5659 26.7499 35.9936 26.9869 35.5717 27.4089C35.1497 27.8308 34.9126 28.4031 34.9126 28.9999V35.7499H24.4126ZM42.4126 37.9999C42.4126 38.1988 42.3336 38.3895 42.193 38.5302C42.0523 38.6708 41.8616 38.7499 41.6626 38.7499H37.1626C36.9637 38.7499 36.773 38.6708 36.6323 38.5302C36.4917 38.3895 36.4126 38.1988 36.4126 37.9999V28.9999C36.4126 28.8009 36.4917 28.6102 36.6323 28.4695C36.773 28.3289 36.9637 28.2499 37.1626 28.2499H41.6626C41.8616 28.2499 42.0523 28.3289 42.193 28.4695C42.3336 28.6102 42.4126 28.8009 42.4126 28.9999V37.9999ZM33.4126 39.4999C33.4126 39.6988 33.3336 39.8895 33.193 40.0302C33.0523 40.1708 32.8616 40.2499 32.6626 40.2499H28.9126C28.7137 40.2499 28.523 40.1708 28.3823 40.0302C28.2417 39.8895 28.1626 39.6988 28.1626 39.4999C28.1626 39.3009 28.2417 39.1102 28.3823 38.9695C28.523 38.8289 28.7137 38.7499 28.9126 38.7499H32.6626C32.8616 38.7499 33.0523 38.8289 33.193 38.9695C33.3336 39.1102 33.4126 39.3009 33.4126 39.4999ZM40.9126 30.4999C40.9126 30.6988 40.8336 30.8895 40.693 31.0302C40.5523 31.1708 40.3616 31.2499 40.1626 31.2499H38.6626C38.4637 31.2499 38.273 31.1708 38.1323 31.0302C37.9917 30.8895 37.9126 30.6988 37.9126 30.4999C37.9126 30.3009 37.9917 30.1102 38.1323 29.9695C38.273 29.8289 38.4637 29.7499 38.6626 29.7499H40.1626C40.3616 29.7499 40.5523 29.8289 40.693 29.9695C40.8336 30.1102 40.9126 30.3009 40.9126 30.4999Z" fill="#321C61"/>
</g>
</g>
</g>
<defs>
<clipPath id="clip0_52_176">
<rect width="65" height="65" fill="white" transform="translate(0.330017 0.00012207)"/>
</clipPath>
<clipPath id="clip1_52_176">
<rect width="65" height="65" fill="white" transform="translate(0.330017 0.00012207)"/>
</clipPath>
<clipPath id="clip2_52_176">
<rect width="65" height="65" fill="white" transform="translate(0.330017 0.00012207)"/>
</clipPath>
</defs>
</svg>
