<svg width="64" height="65" viewBox="0 0 64 65" fill="none" xmlns="http://www.w3.org/2000/svg">
<g clip-path="url(#clip0_52_184)">
<g clip-path="url(#clip1_52_184)">
<g clip-path="url(#clip2_52_184)">
<path d="M63.75 32.4292C63.75 14.8942 49.535 0.679199 32 0.679199C14.465 0.679199 0.25 14.8942 0.25 32.4292C0.25 49.9642 14.465 64.1792 32 64.1792C49.535 64.1792 63.75 49.9642 63.75 32.4292Z" stroke="#268334" stroke-opacity="0.2" stroke-width="0.5"/>
<path d="M31.6277 56.0095C44.7227 56.0095 55.3383 45.3939 55.3383 32.2989C55.3383 19.2039 44.7227 8.58826 31.6277 8.58826C18.5327 8.58826 7.91711 19.2039 7.91711 32.2989C7.91711 45.3939 18.5327 56.0095 31.6277 56.0095Z" stroke="#321C61" stroke-width="1.43377"/>
<path d="M42.9505 34.0446C42.8717 34.1037 42.7821 34.1467 42.6867 34.1711C42.5913 34.1956 42.492 34.201 42.3945 34.1871C42.297 34.1731 42.2032 34.1401 42.1184 34.09C42.0337 34.0398 41.9596 33.9734 41.9005 33.8946C41.4485 33.287 40.8601 32.794 40.1827 32.4553C39.5053 32.1166 38.7579 31.9417 38.0005 31.9446C37.853 31.9446 37.7088 31.9011 37.5859 31.8196C37.4631 31.738 37.3669 31.622 37.3096 31.4862C37.2707 31.3939 37.2506 31.2948 37.2506 31.1946C37.2506 31.0945 37.2707 30.9953 37.3096 30.903C37.3669 30.7672 37.4631 30.6512 37.5859 30.5697C37.7088 30.4881 37.853 30.4446 38.0005 30.4446C38.4213 30.4446 38.8337 30.3265 39.1908 30.1039C39.5479 29.8812 39.8354 29.5629 40.0206 29.185C40.2059 28.8072 40.2814 28.3849 40.2387 27.9663C40.196 27.5476 40.0368 27.1494 39.7791 26.8167C39.5213 26.484 39.1755 26.2303 38.7808 26.0843C38.3861 25.9383 37.9584 25.906 37.5462 25.9909C37.1341 26.0758 36.754 26.2746 36.4492 26.5648C36.1443 26.8549 35.927 27.2246 35.8218 27.6321C35.7972 27.7275 35.754 27.8171 35.6947 27.8959C35.6355 27.9746 35.5613 28.0409 35.4764 28.0909C35.3915 28.141 35.2976 28.1738 35.2 28.1876C35.1025 28.2014 35.0031 28.1958 34.9077 28.1712C34.8123 28.1465 34.7227 28.1034 34.6439 28.0441C34.5652 27.9848 34.4989 27.9107 34.4489 27.8258C34.3988 27.7409 34.366 27.647 34.3522 27.5494C34.3384 27.4518 34.344 27.3525 34.3687 27.2571C34.5147 26.6921 34.7906 26.1689 35.1743 25.7293C35.5581 25.2897 36.0392 24.9457 36.5793 24.7247C37.1194 24.5037 37.7037 24.4118 38.2856 24.4564C38.8674 24.5009 39.4309 24.6806 39.9311 24.9812C40.4313 25.2819 40.8544 25.6951 41.1668 26.188C41.4792 26.6809 41.6723 27.24 41.7306 27.8206C41.7889 28.4013 41.7109 28.9875 41.5028 29.5327C41.2947 30.078 40.9622 30.5671 40.5318 30.9612C41.5516 31.4027 42.4381 32.1034 43.1033 32.9937C43.1624 33.0727 43.2054 33.1625 43.2297 33.2581C43.254 33.3538 43.2592 33.4532 43.245 33.5508C43.2308 33.6485 43.1975 33.7423 43.1469 33.8271C43.0964 33.9118 43.0297 33.9857 42.9505 34.0446ZM37.8993 39.8196C37.9535 39.905 37.99 40.0004 38.0064 40.1002C38.0228 40.2 38.0189 40.3021 37.9948 40.4004C37.9707 40.4986 37.9271 40.591 37.8664 40.6719C37.8057 40.7529 37.7292 40.8207 37.6417 40.8713C37.5541 40.9219 37.4572 40.9543 37.3568 40.9665C37.2564 40.9787 37.1545 40.9704 37.0574 40.9423C36.9602 40.9141 36.8698 40.8665 36.7915 40.8025C36.7132 40.7384 36.6487 40.6592 36.6018 40.5696C36.1293 39.7696 35.4564 39.1066 34.6496 38.646C33.8427 38.1855 32.9296 37.9432 32.0005 37.9432C31.0714 37.9432 30.1584 38.1855 29.3515 38.646C28.5446 39.1066 27.8717 39.7696 27.3993 40.5696C27.3524 40.6592 27.2879 40.7384 27.2096 40.8025C27.1313 40.8665 27.0408 40.9141 26.9437 40.9423C26.8465 40.9704 26.7447 40.9787 26.6443 40.9665C26.5439 40.9543 26.447 40.9219 26.3594 40.8713C26.2718 40.8207 26.1954 40.7529 26.1347 40.6719C26.074 40.591 26.0303 40.4986 26.0062 40.4004C25.9822 40.3021 25.9782 40.2 25.9947 40.1002C26.0111 40.0004 26.0475 39.905 26.1018 39.8196C26.8289 38.5703 27.9376 37.5871 29.2649 37.0146C28.518 36.4428 27.9691 35.6512 27.6953 34.7513C27.4216 33.8514 27.4367 32.8883 27.7386 31.9974C28.0405 31.1065 28.6139 30.3326 29.3784 29.7845C30.1429 29.2364 31.0599 28.9416 32.0005 28.9416C32.9412 28.9416 33.8582 29.2364 34.6227 29.7845C35.3871 30.3326 35.9606 31.1065 36.2625 31.9974C36.5644 32.8883 36.5795 33.8514 36.3057 34.7513C36.0319 35.6512 35.483 36.4428 34.7362 37.0146C36.0635 37.5871 37.1722 38.5703 37.8993 39.8196ZM32.0005 36.4446C32.5939 36.4446 33.1739 36.2687 33.6672 35.939C34.1606 35.6094 34.5451 35.1408 34.7722 34.5927C34.9992 34.0445 35.0586 33.4413 34.9429 32.8593C34.8271 32.2774 34.5414 31.7428 34.1218 31.3233C33.7023 30.9037 33.1677 30.618 32.5858 30.5022C32.0039 30.3865 31.4007 30.4459 30.8525 30.673C30.3043 30.9 29.8358 31.2845 29.5061 31.7779C29.1765 32.2712 29.0005 32.8513 29.0005 33.4446C29.0005 34.2403 29.3166 35.0033 29.8792 35.5659C30.4418 36.1285 31.2049 36.4446 32.0005 36.4446ZM26.7505 31.1946C26.7505 30.9957 26.6715 30.8049 26.5309 30.6643C26.3902 30.5236 26.1994 30.4446 26.0005 30.4446C25.5797 30.4446 25.1673 30.3265 24.8102 30.1039C24.4532 29.8812 24.1657 29.5629 23.9804 29.185C23.7952 28.8072 23.7196 28.3849 23.7623 27.9663C23.805 27.5476 23.9643 27.1494 24.222 26.8167C24.4797 26.484 24.8256 26.2303 25.2202 26.0843C25.6149 25.9383 26.0427 25.906 26.4548 25.9909C26.867 26.0758 27.247 26.2746 27.5519 26.5648C27.8567 26.8549 28.0741 27.2246 28.1793 27.6321C28.229 27.8248 28.3532 27.9898 28.5247 28.0909C28.6961 28.192 28.9006 28.2209 29.0933 28.1712C29.286 28.1214 29.4511 27.9972 29.5522 27.8258C29.6533 27.6544 29.6821 27.4498 29.6324 27.2571C29.4864 26.6921 29.2105 26.1689 28.8267 25.7293C28.4429 25.2897 27.9619 24.9457 27.4217 24.7247C26.8816 24.5037 26.2974 24.4118 25.7155 24.4564C25.1336 24.5009 24.5702 24.6806 24.07 24.9812C23.5698 25.2819 23.1466 25.6951 22.8342 26.188C22.5218 26.6809 22.3288 27.24 22.2705 27.8206C22.2121 28.4013 22.2901 28.9875 22.4983 29.5327C22.7064 30.078 23.0389 30.5671 23.4693 30.9612C22.4505 31.4031 21.5649 32.1038 20.9005 32.9937C20.7811 33.1528 20.7297 33.3529 20.7577 33.5499C20.7858 33.7469 20.8909 33.9247 21.0501 34.0441C21.2092 34.1636 21.4093 34.215 21.6063 34.1869C21.8033 34.1589 21.9811 34.0537 22.1005 33.8946C22.5526 33.287 23.141 32.794 23.8184 32.4553C24.4957 32.1166 25.2432 31.9417 26.0005 31.9446C26.1994 31.9446 26.3902 31.8656 26.5309 31.7249C26.6715 31.5843 26.7505 31.3935 26.7505 31.1946Z" fill="#321C61"/>
</g>
</g>
</g>
<defs>
<clipPath id="clip0_52_184">
<rect width="64" height="65" fill="white"/>
</clipPath>
<clipPath id="clip1_52_184">
<rect width="64" height="65" fill="white"/>
</clipPath>
<clipPath id="clip2_52_184">
<rect width="64" height="65" fill="white"/>
</clipPath>
</defs>
</svg>
