<svg width="66" height="65" viewBox="0 0 66 65" fill="none" xmlns="http://www.w3.org/2000/svg">
<g clip-path="url(#clip0_52_192)">
<g clip-path="url(#clip1_52_192)">
<g clip-path="url(#clip2_52_192)">
<path d="M65.0765 32.4292C65.0765 14.8942 50.8615 0.679199 33.3265 0.679199C15.7915 0.679199 1.57651 14.8942 1.57651 32.4292C1.57651 49.9642 15.7915 64.1792 33.3265 64.1792C50.8615 64.1792 65.0765 49.9642 65.0765 32.4292Z" stroke="#268334" stroke-opacity="0.2" stroke-width="0.5"/>
<path d="M32.9542 56.0095C46.0492 56.0095 56.6648 45.3939 56.6648 32.2989C56.6648 19.2039 46.0492 8.58826 32.9542 8.58826C19.8592 8.58826 9.24361 19.2039 9.24361 32.2989C9.24361 45.3939 19.8592 56.0095 32.9542 56.0095Z" stroke="#321C61" stroke-width="1.43377"/>
<path d="M33.3265 22.1954C31.3981 22.1954 29.5131 22.7672 27.9097 23.8386C26.3063 24.9099 25.0566 26.4327 24.3187 28.2142C23.5807 29.9958 23.3876 31.9562 23.7639 33.8475C24.1401 35.7389 25.0687 37.4761 26.4322 38.8397C27.7958 40.2033 29.5331 41.1319 31.4244 41.5081C33.3157 41.8843 35.2761 41.6912 37.0577 40.9532C38.8393 40.2153 40.362 38.9656 41.4333 37.3622C42.5047 35.7588 43.0765 33.8738 43.0765 31.9454C43.0738 29.3604 42.0457 26.882 40.2178 25.0541C38.3899 23.2262 35.9115 22.1981 33.3265 22.1954ZM41.5418 31.1954H37.8078C37.6756 28.5273 36.8449 25.9951 35.4528 23.9767C37.0833 24.4144 38.5407 25.3408 39.6292 26.6312C40.7178 27.9217 41.3852 29.5144 41.5418 31.1954ZM33.3265 40.1851C31.5706 38.2848 30.5056 35.5913 30.3481 32.6954H36.3049C36.1474 35.5895 35.0824 38.2848 33.3265 40.1851ZM30.3481 31.1954C30.5056 28.3013 31.5668 25.606 33.3265 23.7057C35.0824 25.606 36.1474 28.2995 36.3049 31.1954H30.3481ZM31.2003 23.9767C29.8081 25.9951 28.9774 28.5273 28.8453 31.1954H25.1112C25.2678 29.5144 25.9353 27.9217 27.0238 26.6312C28.1123 25.3408 29.5697 24.4144 31.2003 23.9767ZM25.1112 32.6954H28.8453C28.9774 35.3635 29.8081 37.8957 31.2003 39.9142C29.5697 39.4764 28.1123 38.5501 27.0238 37.2596C25.9353 35.9691 25.2678 34.3764 25.1112 32.6954ZM35.4528 39.9142C36.8449 37.8929 37.6756 35.3607 37.8078 32.6954H41.5418C41.3852 34.3764 40.7178 35.9691 39.6292 37.2596C38.5407 38.5501 37.0833 39.4764 35.4528 39.9142Z" fill="#321C61"/>
</g>
</g>
</g>
<defs>
<clipPath id="clip0_52_192">
<rect width="65" height="65" fill="white" transform="translate(0.660004 0.00012207)"/>
</clipPath>
<clipPath id="clip1_52_192">
<rect width="65" height="65" fill="white" transform="translate(0.660004 0.00012207)"/>
</clipPath>
<clipPath id="clip2_52_192">
<rect width="65" height="65" fill="white" transform="translate(0.660004 0.00012207)"/>
</clipPath>
</defs>
</svg>
