<svg width="66" height="65" viewBox="0 0 66 65" fill="none" xmlns="http://www.w3.org/2000/svg">
<g clip-path="url(#clip0_52_200)">
<g clip-path="url(#clip1_52_200)">
<g clip-path="url(#clip2_52_200)">
<path d="M64.4133 32.4292C64.4133 14.8942 50.1983 0.679199 32.6633 0.679199C15.1282 0.679199 0.913269 14.8942 0.913269 32.4292C0.913269 49.9642 15.1282 64.1792 32.6633 64.1792C50.1983 64.1792 64.4133 49.9642 64.4133 32.4292Z" stroke="#268334" stroke-opacity="0.2" stroke-width="0.5"/>
<path d="M32.2902 56.0095C45.3852 56.0095 56.0008 45.3939 56.0008 32.2989C56.0008 19.2039 45.3852 8.58826 32.2902 8.58826C19.1952 8.58826 8.57962 19.2039 8.57962 32.2989C8.57962 45.3939 19.1952 56.0095 32.2902 56.0095Z" stroke="#321C61" stroke-width="1.43377"/>
<path d="M39.5898 25.8198C38.6926 24.9136 37.6255 24.1932 36.4496 23.7C35.2736 23.2068 34.0119 22.9504 32.7367 22.9454H32.6626C30.0768 22.9454 27.5968 23.9726 25.7684 25.8011C23.9399 27.6296 22.9126 30.1096 22.9126 32.6954V37.9454C22.9126 38.5421 23.1497 39.1144 23.5717 39.5364C23.9936 39.9584 24.5659 40.1954 25.1626 40.1954H26.6626C27.2594 40.1954 27.8317 39.9584 28.2536 39.5364C28.6756 39.1144 28.9126 38.5421 28.9126 37.9454V34.1954C28.9126 33.5987 28.6756 33.0264 28.2536 32.6044C27.8317 32.1825 27.2594 31.9454 26.6626 31.9454H24.4464C24.6335 29.8957 25.5801 27.9899 27.1002 26.6022C28.6204 25.2146 30.6044 24.4453 32.6626 24.4454H32.7255C34.7752 24.4541 36.7477 25.2279 38.2565 26.6153C39.7653 28.0027 40.7015 29.9036 40.8817 31.9454H38.6626C38.0659 31.9454 37.4936 32.1825 37.0717 32.6044C36.6497 33.0264 36.4126 33.5987 36.4126 34.1954V37.9454C36.4126 38.5421 36.6497 39.1144 37.0717 39.5364C37.4936 39.9584 38.0659 40.1954 38.6626 40.1954H40.1626C40.7594 40.1954 41.3317 39.9584 41.7536 39.5364C42.1756 39.1144 42.4126 38.5421 42.4126 37.9454V32.6954C42.4175 31.42 42.1707 30.1562 41.6863 28.9763C41.2019 27.7965 40.4895 26.7238 39.5898 25.8198ZM26.6626 33.4454C26.8616 33.4454 27.0523 33.5244 27.193 33.6651C27.3336 33.8057 27.4126 33.9965 27.4126 34.1954V37.9454C27.4126 38.1443 27.3336 38.3351 27.193 38.4757C27.0523 38.6164 26.8616 38.6954 26.6626 38.6954H25.1626C24.9637 38.6954 24.773 38.6164 24.6323 38.4757C24.4917 38.3351 24.4126 38.1443 24.4126 37.9454V33.4454H26.6626ZM40.9126 37.9454C40.9126 38.1443 40.8336 38.3351 40.693 38.4757C40.5523 38.6164 40.3616 38.6954 40.1626 38.6954H38.6626C38.4637 38.6954 38.273 38.6164 38.1323 38.4757C37.9917 38.3351 37.9126 38.1443 37.9126 37.9454V34.1954C37.9126 33.9965 37.9917 33.8057 38.1323 33.6651C38.273 33.5244 38.4637 33.4454 38.6626 33.4454H40.9126V37.9454Z" fill="#321C61"/>
</g>
</g>
</g>
<defs>
<clipPath id="clip0_52_200">
<rect width="65" height="65" fill="white" transform="translate(0.330017 0.00012207)"/>
</clipPath>
<clipPath id="clip1_52_200">
<rect width="65" height="65" fill="white" transform="translate(0.330017 0.00012207)"/>
</clipPath>
<clipPath id="clip2_52_200">
<rect width="65" height="65" fill="white" transform="translate(0.330017 0.00012207)"/>
</clipPath>
</defs>
</svg>
