<svg width="21" height="21" viewBox="0 0 21 21" fill="none" xmlns="http://www.w3.org/2000/svg">
<path d="M16.2895 9.81502L5.82446 1.64127C5.79711 1.61974 5.76425 1.60636 5.72964 1.60267C5.69504 1.59898 5.66009 1.60512 5.62882 1.62039C5.59755 1.63566 5.57122 1.65945 5.55285 1.68901C5.53449 1.71857 5.52483 1.75272 5.525 1.78752V3.58198C5.525 3.69573 5.57839 3.80484 5.6666 3.87448L14.0237 10.4L5.6666 16.9256C5.57607 16.9952 5.525 17.1043 5.525 17.2181V19.0125C5.525 19.1681 5.70375 19.2539 5.82446 19.1588L16.2895 10.985C16.3784 10.9156 16.4504 10.8269 16.4998 10.7255C16.5493 10.6241 16.5751 10.5128 16.5751 10.4C16.5751 10.2872 16.5493 10.1759 16.4998 10.0745C16.4504 9.97315 16.3784 9.8844 16.2895 9.81502Z" fill="#321C61"/>
</svg>
