<svg width="15" height="17" viewBox="0 0 15 17" fill="none" xmlns="http://www.w3.org/2000/svg">
<path d="M6.42857 0C5.25 0 4.28571 0.95625 4.28571 2.125H2.14286C0.964286 2.125 0 3.08125 0 4.25H15C15 3.08125 14.0357 2.125 12.8571 2.125H10.7143C10.7143 0.95625 9.75 0 8.57143 0H6.42857ZM2.14286 6.375V16.5963C2.14286 16.83 2.31429 17 2.55 17H12.4714C12.7071 17 12.8786 16.83 12.8786 16.5963V6.375H10.7357V13.8125C10.7357 14.4075 10.2643 14.875 9.66429 14.875C9.06429 14.875 8.59286 14.4075 8.59286 13.8125V6.375H6.45V13.8125C6.45 14.4075 5.97857 14.875 5.37857 14.875C4.77857 14.875 4.30714 14.4075 4.30714 13.8125V6.375H2.16429H2.14286Z" fill="#321C61"/>
</svg>
