<svg width="164" height="56" viewBox="0 0 164 56" fill="none" xmlns="http://www.w3.org/2000/svg">
<g clip-path="url(#clip0_52_553)">
<g clip-path="url(#clip1_52_553)">
<g clip-path="url(#clip2_52_553)">
<path d="M56.016 37V16.392H59.6L66.128 29.736L72.624 16.392H76.208V37H72.752V22.056L67.184 33.448H65.072L59.472 22.056V37H56.016ZM82.5338 42.632C81.3818 42.632 80.4004 42.4827 79.5898 42.184V39.592C79.9524 39.72 80.2831 39.8053 80.5818 39.848C80.9018 39.8907 81.2218 39.912 81.5418 39.912C82.2031 39.912 82.7364 39.8053 83.1418 39.592C83.5471 39.3787 83.8991 39.0373 84.1978 38.568C84.5178 38.12 84.8591 37.5333 85.2218 36.808L78.4698 21.832H82.0858L86.9498 33.096L91.8778 21.832H95.4618L89.2858 36.136C88.7524 37.416 88.1764 38.536 87.5578 39.496C86.9604 40.4773 86.2564 41.2453 85.4458 41.8C84.6564 42.3547 83.6858 42.632 82.5338 42.632ZM98.2348 37V16.392H107.419C108.997 16.392 110.299 16.6907 111.323 17.288C112.347 17.8853 113.104 18.7067 113.595 19.752C114.085 20.776 114.331 21.9493 114.331 23.272C114.331 25.32 113.691 26.9627 112.411 28.2C111.152 29.4373 109.445 30.056 107.291 30.056H101.723V37H98.2348ZM101.723 27.304H106.651C108.037 27.304 109.083 26.9413 109.787 26.216C110.491 25.4907 110.843 24.5093 110.843 23.272C110.843 21.9493 110.501 20.9253 109.819 20.2C109.157 19.4747 108.155 19.112 106.811 19.112H101.723V27.304ZM121.221 37.32C120.261 37.32 119.365 37.1493 118.533 36.808C117.722 36.4667 117.071 35.9547 116.581 35.272C116.09 34.568 115.845 33.704 115.845 32.68C115.845 31.2293 116.335 30.0667 117.317 29.192C118.319 28.296 119.855 27.848 121.925 27.848H126.789V27.176C126.789 26.4507 126.671 25.8747 126.437 25.448C126.223 25.0213 125.818 24.712 125.221 24.52C124.645 24.328 123.791 24.232 122.661 24.232C120.869 24.232 119.194 24.4987 117.637 25.032V22.44C118.319 22.1627 119.151 21.9387 120.133 21.768C121.114 21.5973 122.17 21.512 123.301 21.512C125.519 21.512 127.205 21.96 128.357 22.856C129.53 23.752 130.117 25.2133 130.117 27.24V37H127.141L126.917 35.464C126.298 36.0613 125.53 36.52 124.613 36.84C123.717 37.16 122.586 37.32 121.221 37.32ZM122.149 34.824C123.194 34.824 124.101 34.6533 124.869 34.312C125.658 33.9493 126.298 33.4693 126.789 32.872V30.216H121.989C120.965 30.216 120.218 30.4187 119.749 30.824C119.301 31.208 119.077 31.8053 119.077 32.616C119.077 33.4053 119.343 33.9707 119.877 34.312C120.41 34.6533 121.167 34.824 122.149 34.824ZM139.041 37.32C137.995 37.32 136.993 37.2453 136.033 37.096C135.094 36.9467 134.315 36.7653 133.697 36.552V33.608C134.422 33.8853 135.222 34.0987 136.097 34.248C136.971 34.3973 137.803 34.472 138.593 34.472C139.787 34.472 140.641 34.3653 141.153 34.152C141.665 33.9387 141.921 33.5227 141.921 32.904C141.921 32.456 141.761 32.104 141.441 31.848C141.142 31.592 140.683 31.3573 140.065 31.144C139.467 30.9307 138.699 30.6747 137.761 30.376C136.865 30.0773 136.086 29.7573 135.425 29.416C134.763 29.0533 134.251 28.5947 133.889 28.04C133.526 27.4853 133.345 26.76 133.345 25.864C133.345 24.4773 133.846 23.4107 134.849 22.664C135.851 21.896 137.462 21.512 139.681 21.512C140.555 21.512 141.387 21.576 142.177 21.704C142.966 21.832 143.638 21.992 144.193 22.184V25.096C143.595 24.8613 142.934 24.68 142.209 24.552C141.505 24.424 140.843 24.36 140.225 24.36C139.115 24.36 138.273 24.456 137.697 24.648C137.142 24.84 136.865 25.224 136.865 25.8C136.865 26.3973 137.153 26.824 137.729 27.08C138.326 27.3147 139.275 27.6453 140.577 28.072C141.771 28.4347 142.721 28.8187 143.425 29.224C144.129 29.6293 144.63 30.12 144.929 30.696C145.249 31.2507 145.409 31.976 145.409 32.872C145.409 34.3653 144.865 35.4853 143.777 36.232C142.689 36.9573 141.11 37.32 139.041 37.32ZM153.072 37.32C152.027 37.32 151.024 37.2453 150.064 37.096C149.125 36.9467 148.347 36.7653 147.728 36.552V33.608C148.453 33.8853 149.253 34.0987 150.128 34.248C151.003 34.3973 151.835 34.472 152.624 34.472C153.819 34.472 154.672 34.3653 155.184 34.152C155.696 33.9387 155.952 33.5227 155.952 32.904C155.952 32.456 155.792 32.104 155.472 31.848C155.173 31.592 154.715 31.3573 154.096 31.144C153.499 30.9307 152.731 30.6747 151.792 30.376C150.896 30.0773 150.117 29.7573 149.456 29.416C148.795 29.0533 148.283 28.5947 147.92 28.04C147.557 27.4853 147.376 26.76 147.376 25.864C147.376 24.4773 147.877 23.4107 148.88 22.664C149.883 21.896 151.493 21.512 153.712 21.512C154.587 21.512 155.419 21.576 156.208 21.704C156.997 21.832 157.669 21.992 158.224 22.184V25.096C157.627 24.8613 156.965 24.68 156.24 24.552C155.536 24.424 154.875 24.36 154.256 24.36C153.147 24.36 152.304 24.456 151.728 24.648C151.173 24.84 150.896 25.224 150.896 25.8C150.896 26.3973 151.184 26.824 151.76 27.08C152.357 27.3147 153.307 27.6453 154.608 28.072C155.803 28.4347 156.752 28.8187 157.456 29.224C158.16 29.6293 158.661 30.12 158.96 30.696C159.28 31.2507 159.44 31.976 159.44 32.872C159.44 34.3653 158.896 35.4853 157.808 36.232C156.72 36.9573 155.141 37.32 153.072 37.32Z" fill="white"/>
<path d="M38.7066 9.75854H9.53335L0.364624 26.1212L24.2033 46.12L48.2087 26.4518L38.7066 9.75854Z" fill="white"/>
<g clip-path="url(#clip3_52_553)">
<path d="M19.3046 24.7798C19.3046 24.5861 19.459 24.429 19.6493 24.429C19.8396 24.429 19.994 24.5861 19.994 24.7798V25.0547L20.2561 24.872C20.4132 24.7633 20.6269 24.8044 20.7337 24.9643C20.8405 25.1242 20.8001 25.3416 20.643 25.4503L20.293 25.6951L20.6215 25.8879C20.7858 25.9847 20.8414 26.1984 20.7463 26.3656C20.6511 26.5328 20.4411 26.5894 20.2768 26.4926L19.9931 26.3263V26.6598C19.9931 26.8534 19.8387 27.0105 19.6484 27.0105C19.4581 27.0105 19.3037 26.8534 19.3037 26.6598V26.3848L19.0416 26.5675C18.8845 26.6762 18.6708 26.6351 18.564 26.4752C18.4572 26.3154 18.4976 26.098 18.6547 25.9893L19.0048 25.7444L18.6762 25.5517C18.5119 25.4549 18.4563 25.2411 18.5514 25.0739C18.6466 24.9067 18.8566 24.8501 19.0209 24.947L19.3046 25.1132V24.7798ZM28.5784 24.7798C28.5784 24.5861 28.7328 24.429 28.9232 24.429C29.1135 24.429 29.2679 24.5861 29.2679 24.7798V25.0547L29.53 24.872C29.6871 24.7633 29.9007 24.8044 30.0075 24.9643C30.1144 25.1242 30.074 25.3416 29.9169 25.4503L29.5668 25.6951L29.8953 25.8879C30.0596 25.9847 30.1153 26.1984 30.0201 26.3656C29.925 26.5328 29.7149 26.5894 29.5506 26.4926L29.267 26.3263V26.6598C29.267 26.8534 29.1126 27.0105 28.9222 27.0105C28.7319 27.0105 28.5775 26.8534 28.5775 26.6598V26.3848L28.3154 26.5675C28.1583 26.6762 27.9447 26.6351 27.8379 26.4752C27.731 26.3154 27.7714 26.098 27.9285 25.9893L28.2786 25.7444L27.9501 25.5517C27.7858 25.4549 27.7301 25.2411 27.8253 25.0739C27.9204 24.9068 28.1305 24.8501 28.2948 24.947L28.5784 25.1132V24.7798ZM23.941 24.7798C23.941 24.5861 24.0954 24.429 24.2857 24.429C24.476 24.429 24.6304 24.5861 24.6304 24.7798V25.0547L24.8925 24.872C25.0496 24.7633 25.2632 24.8044 25.37 24.9643C25.4769 25.1242 25.4365 25.3416 25.2794 25.4503L24.9293 25.6951L25.2579 25.8879C25.4221 25.9847 25.4778 26.1984 25.3826 26.3656C25.2875 26.5328 25.0774 26.5894 24.9131 26.4926L24.6295 26.3263V26.6598C24.6295 26.8534 24.4751 27.0105 24.2848 27.0105C24.0944 27.0105 23.94 26.8534 23.94 26.6598V26.3848L23.6779 26.5675C23.5208 26.6762 23.3072 26.6351 23.2004 26.4752C23.0935 26.3154 23.1339 26.098 23.291 25.9893L23.6411 25.7444L23.3126 25.5517C23.1483 25.4549 23.0926 25.2411 23.1878 25.0739C23.2829 24.9068 23.493 24.8501 23.6573 24.947L23.941 25.1132V24.7798ZM17.1555 28.8603V33.7055C17.1555 34.2326 17.3673 34.7122 17.7075 35.0584C18.0477 35.4047 18.519 35.6202 19.037 35.6202H29.5346C30.0525 35.6202 30.5238 35.4046 30.864 35.0584C31.2043 34.7122 31.4161 34.2327 31.4161 33.7055V28.8603H17.1555ZM18.4023 22.5801H20.204V19.6249C20.204 18.4831 20.6645 17.4444 21.4033 16.6917C22.143 15.9389 23.1646 15.4712 24.2858 15.4712C25.407 15.4712 26.4285 15.9399 27.1682 16.6926C27.9079 17.4453 28.3684 18.4849 28.3684 19.6258V22.5811H30.1701V19.6258C30.1701 17.9861 29.5156 16.4962 28.451 15.4045C27.3765 14.312 25.9052 13.6378 24.2867 13.6378C22.6672 13.6378 21.196 14.3111 20.1304 15.3945C19.064 16.4797 18.4024 17.9769 18.4024 19.6258L18.4023 22.5801ZM32.0014 23.2817H16.571C16.3816 23.2817 16.2093 23.3612 16.0845 23.4882C15.9597 23.6151 15.8816 23.7914 15.8816 23.9833V27.4555C15.8816 27.6419 15.9534 27.8118 16.0773 27.9433C16.2101 28.0785 16.3825 28.1571 16.5719 28.1571H32.0023C32.1917 28.1571 32.364 28.0776 32.4888 27.9507C32.6145 27.8246 32.6917 27.6492 32.6917 27.4555V23.9833C32.6917 23.7905 32.6136 23.6151 32.4888 23.4881C32.364 23.3612 32.1899 23.2817 32.0014 23.2817Z" fill="#321C61"/>
</g>
</g>
</g>
</g>
<defs>
<clipPath id="clip0_52_553">
<rect width="163.92" height="56" fill="white"/>
</clipPath>
<clipPath id="clip1_52_553">
<rect width="164" height="56" fill="white"/>
</clipPath>
<clipPath id="clip2_52_553">
<rect width="163.92" height="55.9975" fill="white" transform="translate(0 0.0012207)"/>
</clipPath>
<clipPath id="clip3_52_553">
<rect width="20.6893" height="25.8617" fill="white" transform="translate(12.0023 11.0516)"/>
</clipPath>
</defs>
</svg>
