<svg width="124" height="38" viewBox="0 0 124 38" fill="none" xmlns="http://www.w3.org/2000/svg">
<path d="M45.512 25.59V10.134H48.2L53.096 20.142L57.968 10.134H60.656V25.59H58.064V14.382L53.888 22.926H52.304L48.104 14.382V25.59H45.512ZM65.4003 29.814C64.5363 29.814 63.8003 29.702 63.1923 29.478V27.534C63.4643 27.63 63.7123 27.694 63.9363 27.726C64.1763 27.758 64.4163 27.774 64.6563 27.774C65.1523 27.774 65.5523 27.694 65.8563 27.534C66.1603 27.374 66.4243 27.118 66.6483 26.766C66.8883 26.43 67.1443 25.99 67.4163 25.446L62.3523 14.214H65.0643L68.7123 22.662L72.4083 14.214H75.0963L70.4643 24.942C70.0643 25.902 69.6323 26.742 69.1683 27.462C68.7203 28.198 68.1923 28.774 67.5843 29.19C66.9923 29.606 66.2643 29.814 65.4003 29.814ZM77.1761 25.59V10.134H84.0641C85.2481 10.134 86.2241 10.358 86.9921 10.806C87.7601 11.254 88.3281 11.87 88.6961 12.654C89.0641 13.422 89.2481 14.302 89.2481 15.294C89.2481 16.83 88.7681 18.062 87.8081 18.99C86.8641 19.918 85.5841 20.382 83.9681 20.382H79.7921V25.59H77.1761ZM79.7921 18.318H83.4881C84.5281 18.318 85.3121 18.046 85.8401 17.502C86.3681 16.958 86.6321 16.222 86.6321 15.294C86.6321 14.302 86.3761 13.534 85.8641 12.99C85.3681 12.446 84.6161 12.174 83.6081 12.174H79.7921V18.318ZM94.4156 25.83C93.6956 25.83 93.0236 25.702 92.3996 25.446C91.7916 25.19 91.3036 24.806 90.9356 24.294C90.5676 23.766 90.3836 23.118 90.3836 22.35C90.3836 21.262 90.7516 20.39 91.4876 19.734C92.2396 19.062 93.3916 18.726 94.9436 18.726H98.5916V18.222C98.5916 17.678 98.5036 17.246 98.3276 16.926C98.1676 16.606 97.8636 16.374 97.4156 16.23C96.9836 16.086 96.3436 16.014 95.4956 16.014C94.1516 16.014 92.8956 16.214 91.7276 16.614V14.67C92.2396 14.462 92.8636 14.294 93.5996 14.166C94.3356 14.038 95.1276 13.974 95.9756 13.974C97.6396 13.974 98.9036 14.31 99.7676 14.982C100.648 15.654 101.088 16.75 101.088 18.27V25.59H98.8556L98.6876 24.438C98.2236 24.886 97.6476 25.23 96.9596 25.47C96.2876 25.71 95.4396 25.83 94.4156 25.83ZM95.1116 23.958C95.8956 23.958 96.5756 23.83 97.1516 23.574C97.7436 23.302 98.2236 22.942 98.5916 22.494V20.502H94.9916C94.2236 20.502 93.6636 20.654 93.3116 20.958C92.9756 21.246 92.8076 21.694 92.8076 22.302C92.8076 22.894 93.0076 23.318 93.4076 23.574C93.8076 23.83 94.3756 23.958 95.1116 23.958ZM107.781 25.83C106.997 25.83 106.245 25.774 105.525 25.662C104.821 25.55 104.237 25.414 103.773 25.254V23.046C104.317 23.254 104.917 23.414 105.573 23.526C106.229 23.638 106.853 23.694 107.445 23.694C108.341 23.694 108.981 23.614 109.365 23.454C109.749 23.294 109.941 22.982 109.941 22.518C109.941 22.182 109.821 21.918 109.581 21.726C109.357 21.534 109.013 21.358 108.549 21.198C108.101 21.038 107.525 20.846 106.821 20.622C106.149 20.398 105.565 20.158 105.069 19.902C104.573 19.63 104.189 19.286 103.917 18.87C103.645 18.454 103.509 17.91 103.509 17.238C103.509 16.198 103.885 15.398 104.637 14.838C105.389 14.262 106.597 13.974 108.261 13.974C108.917 13.974 109.541 14.022 110.133 14.118C110.725 14.214 111.229 14.334 111.645 14.478V16.662C111.197 16.486 110.701 16.35 110.157 16.254C109.629 16.158 109.133 16.11 108.669 16.11C107.837 16.11 107.205 16.182 106.773 16.326C106.357 16.47 106.149 16.758 106.149 17.19C106.149 17.638 106.365 17.958 106.797 18.15C107.245 18.326 107.957 18.574 108.933 18.894C109.829 19.166 110.541 19.454 111.069 19.758C111.597 20.062 111.973 20.43 112.197 20.862C112.437 21.278 112.557 21.822 112.557 22.494C112.557 23.614 112.149 24.454 111.333 25.014C110.517 25.558 109.333 25.83 107.781 25.83ZM118.304 25.83C117.52 25.83 116.768 25.774 116.048 25.662C115.344 25.55 114.76 25.414 114.296 25.254V23.046C114.84 23.254 115.44 23.414 116.096 23.526C116.752 23.638 117.376 23.694 117.968 23.694C118.864 23.694 119.504 23.614 119.888 23.454C120.272 23.294 120.464 22.982 120.464 22.518C120.464 22.182 120.344 21.918 120.104 21.726C119.88 21.534 119.536 21.358 119.072 21.198C118.624 21.038 118.048 20.846 117.344 20.622C116.672 20.398 116.088 20.158 115.592 19.902C115.096 19.63 114.712 19.286 114.44 18.87C114.168 18.454 114.032 17.91 114.032 17.238C114.032 16.198 114.408 15.398 115.16 14.838C115.912 14.262 117.12 13.974 118.784 13.974C119.44 13.974 120.064 14.022 120.656 14.118C121.248 14.214 121.752 14.334 122.168 14.478V16.662C121.72 16.486 121.224 16.35 120.68 16.254C120.152 16.158 119.656 16.11 119.192 16.11C118.36 16.11 117.728 16.182 117.296 16.326C116.88 16.47 116.672 16.758 116.672 17.19C116.672 17.638 116.888 17.958 117.32 18.15C117.768 18.326 118.48 18.574 119.456 18.894C120.352 19.166 121.064 19.454 121.592 19.758C122.12 20.062 122.496 20.43 122.72 20.862C122.96 21.278 123.08 21.822 123.08 22.494C123.08 23.614 122.672 24.454 121.856 25.014C121.04 25.558 119.856 25.83 118.304 25.83Z" fill="white"/>
<path d="M29.6516 5.59H7.09059L0 18.244L18.4355 33.71L37 18.4996L29.6516 5.59Z" fill="white"/>
<path d="M14.6472 17.2066C14.6472 17.0568 14.7666 16.9353 14.9138 16.9353C15.0609 16.9353 15.1803 17.0568 15.1803 17.2066V17.4192L15.383 17.2779C15.5045 17.1939 15.6698 17.2257 15.7524 17.3493C15.835 17.4729 15.8037 17.6411 15.6822 17.7251L15.4115 17.9144L15.6656 18.0635C15.7926 18.1384 15.8357 18.3037 15.7621 18.433C15.6885 18.5623 15.5261 18.6061 15.399 18.5312L15.1796 18.4026V18.6605C15.1796 18.8102 15.0602 18.9317 14.913 18.9317C14.7659 18.9317 14.6465 18.8102 14.6465 18.6605V18.4478L14.4438 18.5891C14.3223 18.6732 14.157 18.6414 14.0744 18.5178C13.9918 18.3941 14.0231 18.226 14.1446 18.1419L14.4153 17.9526L14.1612 17.8035C14.0342 17.7287 13.9911 17.5634 14.0647 17.4341C14.1383 17.3048 14.3007 17.261 14.4278 17.3359L14.6472 17.4644V17.2066ZM21.8191 17.2066C21.8191 17.0568 21.9385 16.9353 22.0856 16.9353C22.2328 16.9353 22.3522 17.0568 22.3522 17.2066V17.4192L22.5549 17.2779C22.6764 17.1939 22.8416 17.2257 22.9242 17.3493C23.0069 17.4729 22.9756 17.6411 22.8541 17.7251L22.5834 17.9144L22.8375 18.0635C22.9645 18.1384 23.0076 18.3037 22.934 18.433C22.8604 18.5623 22.6979 18.6061 22.5709 18.5312L22.3515 18.4026V18.6605C22.3515 18.8102 22.2321 18.9317 22.0849 18.9317C21.9378 18.9317 21.8184 18.8102 21.8184 18.6605V18.4478L21.6156 18.5891C21.4942 18.6732 21.3289 18.6414 21.2463 18.5178C21.1637 18.3941 21.195 18.226 21.3164 18.1419L21.5872 17.9526L21.3331 17.8035C21.2061 17.7287 21.163 17.5634 21.2366 17.4341C21.3102 17.3048 21.4726 17.261 21.5997 17.3359L21.8191 17.4644V17.2066ZM18.2327 17.2066C18.2327 17.0568 18.3521 16.9353 18.4992 16.9353C18.6464 16.9353 18.7658 17.0568 18.7658 17.2066V17.4192L18.9685 17.2779C19.09 17.1939 19.2553 17.2257 19.3379 17.3493C19.4205 17.4729 19.3892 17.6411 19.2677 17.7251L18.997 17.9144L19.2511 18.0635C19.3781 18.1384 19.4212 18.3037 19.3476 18.433C19.274 18.5623 19.1116 18.6061 18.9845 18.5312L18.7651 18.4026V18.6605C18.7651 18.8102 18.6457 18.9317 18.4985 18.9317C18.3514 18.9317 18.232 18.8102 18.232 18.6605V18.4478L18.0293 18.5891C17.9078 18.6732 17.7425 18.6414 17.6599 18.5178C17.5773 18.3941 17.6086 18.226 17.7301 18.1419L18.0008 17.9526L17.7467 17.8035C17.6197 17.7287 17.5766 17.5634 17.6502 17.4341C17.7238 17.3048 17.8862 17.261 18.0133 17.3359L18.2327 17.4644V17.2066ZM12.9851 20.3622V24.1093C12.9851 24.5169 13.149 24.8878 13.4121 25.1555C13.6752 25.4233 14.0396 25.59 14.4402 25.59H22.5585C22.959 25.59 23.3235 25.4233 23.5866 25.1555C23.8497 24.8878 24.0135 24.5169 24.0135 24.1093V20.3622H12.9851ZM13.9494 15.5055H15.3427V13.2201C15.3427 12.337 15.6988 11.5338 16.2702 10.9517C16.8422 10.3696 17.6322 10.0079 18.4993 10.0079C19.3664 10.0079 20.1564 10.3703 20.7285 10.9524C21.3005 11.5345 21.6566 12.3385 21.6566 13.2208V15.5062H23.0499V13.2208C23.0499 11.9527 22.5438 10.8005 21.7205 9.95627C20.8895 9.11136 19.7517 8.59 18.5 8.59C17.2477 8.59 16.1099 9.11065 15.2858 9.94849C14.4611 10.7877 13.9494 11.9456 13.9494 13.2208L13.9494 15.5055ZM24.4662 16.0481H12.5332C12.3867 16.0481 12.2534 16.1095 12.1569 16.2077C12.0604 16.3059 12 16.4423 12 16.5906V19.2759C12 19.42 12.0555 19.5514 12.1513 19.6531C12.2541 19.7577 12.3874 19.8184 12.5338 19.8184H24.4668C24.6133 19.8184 24.7466 19.757 24.8431 19.6588C24.9403 19.5613 25 19.4256 25 19.2759V16.5906C25 16.4415 24.9396 16.3059 24.8431 16.2077C24.7466 16.1095 24.6119 16.0481 24.4662 16.0481Z" fill="#321C61"/>
</svg>
