<svg width="24" height="25" viewBox="0 0 24 25" fill="none" xmlns="http://www.w3.org/2000/svg">
<path d="M21.8699 11.8904C21.2299 10.7427 17.7099 4.98377 11.7299 5.16988C6.19995 5.31463 2.99995 10.3395 2.12995 11.8904C2.04218 12.0476 1.99597 12.2258 1.99597 12.4073C1.99597 12.5888 2.04218 12.7671 2.12995 12.9243C2.75995 14.0513 6.12995 19.6448 12.0199 19.6448H12.2699C17.7999 19.5001 21.0099 14.4752 21.8699 12.9243C21.9577 12.7671 22.0039 12.5888 22.0039 12.4073C22.0039 12.2258 21.9577 12.0476 21.8699 11.8904ZM12.2199 17.577C7.90995 17.6803 5.09995 13.8652 4.21995 12.4073C5.21995 10.7427 7.82995 7.34112 11.8299 7.23772C16.1199 7.12399 18.9399 10.9495 19.8299 12.4073C18.7999 14.072 16.2199 17.4736 12.2199 17.577Z" fill="#321C61"/>
<path d="M12 8.7883C11.3078 8.7883 10.6311 9.00053 10.0555 9.39817C9.47993 9.7958 9.03133 10.361 8.76642 11.0222C8.50152 11.6834 8.4322 12.411 8.56725 13.113C8.7023 13.815 9.03564 14.4598 9.52513 14.9659C10.0146 15.4719 10.6383 15.8166 11.3172 15.9562C11.9961 16.0959 12.6999 16.0242 13.3394 15.7503C13.9789 15.4764 14.5256 15.0126 14.9101 14.4175C15.2947 13.8224 15.5 13.1227 15.5 12.407C15.5 11.4473 15.1313 10.5268 14.4749 9.8482C13.8185 9.16956 12.9283 8.7883 12 8.7883ZM12 13.9579C11.7033 13.9579 11.4133 13.867 11.1666 13.6965C10.92 13.5261 10.7277 13.2839 10.6142 13.0005C10.5007 12.7171 10.4709 12.4053 10.5288 12.1045C10.5867 11.8036 10.7296 11.5273 10.9393 11.3104C11.1491 11.0935 11.4164 10.9458 11.7074 10.8859C11.9983 10.8261 12.2999 10.8568 12.574 10.9742C12.8481 11.0916 13.0824 11.2904 13.2472 11.5454C13.412 11.8004 13.5 12.1003 13.5 12.407C13.5 12.8184 13.342 13.2128 13.0607 13.5037C12.7794 13.7945 12.3978 13.9579 12 13.9579Z" fill="#321C61"/>
</svg>
